<svg xmlns="http://www.w3.org/2000/svg" width="32" height="32" viewBox="0 0 32 32">
    <g fill="none" fill-rule="evenodd">
        <path d="M0 0L32 0 32 32 0 32z"/>
        <path d="M0 0L32 0 32 32 0 32z"/>
        <path fill="#3D405F" d="M26.667 5.333H5.333A2.646 2.646 0 002.68 8l-.013 16a2.657 2.657 0 002.666 2.667h21.334A2.657 2.657 0 0029.333 24V8a2.657 2.657 0 00-2.666-2.667zM25.333 24H6.667c-.734 0-1.334-.6-1.334-1.333V16h21.334v6.667c0 .733-.6 1.333-1.334 1.333zm1.334-13.333H5.333V8h21.334v2.667z"/>
    </g>
</svg>
